<svg id="Layer_1" enable-background="new 0 0 70 70" height="512" viewBox="0 0 70 70" width="512" xmlns="http://www.w3.org/2000/svg"><path d="m56.8325195 40.5307617c3.6425781-6.4643555 4.5527344-13.9575195 2.5625-21.0991211-1.925293-6.9082031-7.2714844-13.5385742-13.9526367-17.3027344-.230957-.1308594-.5048828-.1640625-.7607422-.0917969-.2558594.0717773-.4726562.2421875-.6020508.4741211l-2.0802612 3.7112427c-4.9979248-2.5737915-10.6884155-3.1836547-16.1365356-1.6677856-5.7290039 1.5957031-10.4931641 5.3271484-13.4155273 10.5068359-5.9039307 10.4664307-2.3893433 23.7208252 7.7927856 29.9313965l-2.4099731 4.2868652c-.2700195.4804688-.1005859 1.0888672.3789062 1.3603516 4.3798828 2.4794922 9.9023438 4.0200195 14.4125977 4.0200195.7559204 0 1.5055542-.0409546 2.2514648-.1016846v4.3619385h-7.3076172c-4.4550781 0-8.0795898 3.6245117-8.0795898 8.0795898 0 .5522461.4477539 1 1 1h37.1523438c.5522461 0 1-.4477539 1-1 0-4.4550781-3.6245117-8.0795898-8.0795898-8.0795898h-7.3076172v-6.3806763c5.6533812-2.3416747 10.4835204-6.5180053 13.5815428-12.0089721zm-42.6430664-24.4868164c2.6591797-4.7143555 6.9956055-8.1103516 12.2099609-9.5625 1.8061523-.5029297 3.6425781-.7519531 5.4677734-.7519531 3.4418945 0 6.8432617.8857422 9.9228516 2.6230469 1.5893555.8964844 2.9925537 1.9918823 4.2352295 3.2146606-.203125.2216187-.3875122.4412231-.5545654.6671753-.9638672 1.3359375-1.315918 2.8696289-.9692383 4.1982422.1293945.5170898.3579102.9873047.5600586 1.4023438.2597656.5341797.484375.9960938.4458008 1.3857422-.0717773.6513672-.909668 1.1513672-1.6987305 1.3081055-.465332.0917969-.9584961.1210938-1.480957.1518555-.6865234.0410156-1.3959961.0830078-2.1230469.2729492-.3691406.0981445-.9125977.2753906-1.3623047.6743164-.4169922.3652344-.7182617.8793945-.921875 1.5756836-.6928711 2.409668.262207 5.296875 2.5546875 7.7236328 2.4049072 2.5446777 5.8486328 4.1748047 9.2804565 4.4777222-.0953979.1816406-.1721802.3682861-.2736206.5481567-2.6582031 4.7119141-6.9926758 8.1074219-12.2050781 9.5610352-1.3813477.3850708-2.7804565.6112671-4.178894.701355.001709-.5487671.0129395-1.1003418.0304565-1.6432495.0131836-.4223633.0268555-.8422852.0332031-1.2548828.0717773-4.0561523-1.3989258-8.512207-5.7436523-8.8544922-.5678711-.0439453-1.0532227-.2646484-1.3354492-.609375-.2607422-.315918-.2529297-.4511719.0693359-1.2055664.1591797-.371582.3393555-.7929688.4023438-1.2856445.2202148-1.7924805-1.3115234-3.2797852-2.9106445-3.6801758-1.0854492-.2827148-2.1425781-.1914062-3.1645508-.1030273-.2719727.0234375-.543457.0473633-.840332.0644531-.0297852.0024414-.0556641.0043945-.0766602.0053711-.0273437-.089844-.0527344-.2031252-.0620117-.2446291l-.2094727-.9990234c-.2583008-1.2338867-1.1860352-2.1801758-2.4213867-2.4707031-1.184082-.2773438-2.3803711.1337891-3.1225586 1.0761719-.0161133.0205078-.03125.0415039-.0458984.0629883-.453125.5800781-.7836914 1.2045898-1.1035156 1.8085938-.2767334.522522-.5396729 1.0144043-.8590698 1.4385376-.480774-4.1121218.2661132-8.4030764 2.4513549-12.2769167zm36.4643555 17.4035645c-3.1914062-.0656128-6.4769287-1.5147095-8.7250977-3.8937988-1.8017578-1.9072266-2.581543-4.074707-2.0878906-5.7924805.0913086-.3120117.1987305-.5234375.324707-.6337891.1020508-.090332.2827148-.1694336.5483398-.2397461.5322266-.1391602 1.1152344-.1738281 1.7324219-.2104492.5654297-.0336914 1.1503906-.0683594 1.75-.1860352 1.5078125-.2998047 3.112793-1.359375 3.300293-3.0625.0952148-.9638672-.293457-1.7631836-.6367188-2.46875-.1743164-.3588867-.3393555-.6972656-.4204102-1.0224609-.1958008-.7480469.0488281-1.6948242.6464844-2.5234375.0888672-.1201782.1983643-.2420044.3040771-.3635864 4.6500856 5.5997925 6.0256349 13.4290771 3.2637941 20.3970337zm-38.5019531-2.7858277c.4259644-.2952881.8237305-.6620483 1.1542969-1.0942993.4301758-.5629883.7495117-1.1660156 1.0585938-1.7495117.296875-.5610352.5771484-1.0908203.9306641-1.5366211.0151367-.019043.0297852-.0390625.043457-.059082.3730469-.4462891.8735352-.3881836 1.0727539-.3408203.3691406.0869141.8046875.3774414.9213867.934082l.2124023 1.0112305c.0908203.4086914.2597656 1.1689453.9697266 1.581543.4545898.2602539.9282227.2592773 1.2636719.2304688.2900391-.0166016.5810547-.0419922.8725586-.0668945.8930664-.0771484 1.7358398-.1499023 2.4975586.0483398.7358398.184082 1.5004883.8447266 1.4204102 1.4936523-.0268555.2114258-.1381836.472168-.2563477.7480469-.3149414.7368164-.8422852 1.9702148.2241211 3.2612305.6323242.7734375 1.6010742 1.2470703 2.7255859 1.3339844 3.7250977.293457 3.9262695 5.2983398 3.8989258 6.8271484-.0063477.4042969-.019043.8129883-.0322266 1.2246094-.0181885.5688477-.0297241 1.1506958-.0310059 1.7351074-3.199646-.112915-6.3485107-.980957-9.2175293-2.5993652-5.112854-2.8842165-8.4699707-7.67688-9.7290039-12.9828493zm7.9194336 18.7128296 1.9204102-3.4161377c3.0878906 1.5274658 6.4296265 2.3101807 9.8095703 2.3101807.0855103 0 .1712646-.0078125.2568359-.0087891.0181885.0009766.0338135.0102539.0522461.0102539.015625 0 .0307617-.0004883.0458984-.0009766.0209961-.0009766.0380249-.0123901.0586548-.0145874 1.8706665-.0350952 3.7495117-.2978516 5.5995483-.8140259 5.7265625-1.5966797 10.4892578-5.3276367 13.409668-10.5048828 2.9223633-5.1806641 3.652832-11.1875 2.0571289-16.9135742-.9594116-3.4428101-2.7037964-6.5269165-5.0584106-9.0827637-.0127563-.0159302-.0166016-.0357056-.0304565-.0510254-.0111084-.0122681-.0267334-.0166626-.038269-.0282593-1.293396-1.3905029-2.7797852-2.6069946-4.4197388-3.6434937l1.590332-2.8365479c5.8295898 3.5805664 10.4394531 9.472168 12.1435547 15.5888672 1.8466797 6.6269531 1.0024414 13.5810547-2.3779297 19.5800781-4.5634766 8.0874023-13.1728516 13.1113281-22.46875 13.1113281-3.8916016.0000002-8.6132813-1.2460935-12.550293-3.2856443zm36.4848632 16.6254883h-34.9882812c.4785156-2.878418 2.9858398-5.0795898 5.9975586-5.0795898h22.9931641c3.0117187 0 5.5190429 2.2011718 5.9975585 5.0795898zm-15.3051757-7.0795898h-4.3779297v-4.600708c1.4935913-.2317505 2.9567261-.5820312 4.3779297-1.0470581z"/><path d="m25.980957 23.4013672c.53125.3945312 1.2138672.5947266 2.0869141.6118164.0395508.0004883.0791016.0009766.1186523.0009766 2.2744141 0 4.3334961-1.2543945 5.0336914-3.0795898.4086914-1.065918.3388672-2.1767578.2773438-3.1572266-.0522461-.8300781-.1015625-1.6147461.128418-2.2670898.1293945-.3681641.3642578-.7363281.6123047-1.1264648.1982422-.3110352.3950195-.6235352.5605469-.9511719.6435547-1.2734375.6123047-2.5634766-.0834961-3.4516602-.6010742-.7680664-1.4511719-1.1333008-2.3945312-1.0322266-2.9916992.3266602-6.4179688 5.3847656-7.0234375 6.6474609-.9291992 1.9379883-1.1118164 4.1240234-.5014648 5.9970703.2690428.8247071.6567381 1.4160156 1.1850584 1.8081055zm1.1201172-6.9404297c.621582-1.296875 3.6826172-5.3325195 5.4365234-5.5239258.0351562-.0039062.0693359-.0058594.1025391-.0058594.1748047 0 .3276367.0620117.5009766.2832031.1923828.2456055.1401367.7866211-.1274414 1.3164062-.1357422.269043-.300293.5239258-.4624023.7788086-.2978516.4677734-.605957.9516602-.8120117 1.5366211-.3647461 1.0361328-.2973633 2.109375-.237793 3.0566406.0537109.8520508.1044922 1.65625-.1484375 2.3154297-.4643555 1.2104492-2.0126953 1.8105469-3.246582 1.7949219-.4360352-.0083008-.7495117-.081543-.9331055-.2177734-.1821289-.1347656-.3422852-.4116211-.4760742-.8222656-.4526368-1.3886718-.3056641-3.0332031.4038085-4.512207z"/></svg>