<svg id="Capa_1" enable-background="new 0 0 512.173 512.173" height="512" viewBox="0 0 512.173 512.173" width="512" xmlns="http://www.w3.org/2000/svg"><g><path d="m511.379 459.099-29.542-142.013 29.542-142.013c2.432-11.608-.676-26.137-9.941-37.074-5.218-6.16-11.906-10.708-19.328-13.332v-79.581c0-24.813-20.187-45-45-45h-361c-24.813 0-45 20.187-45 45v79.239c-22.154 7.248-34.551 30.308-30.27 50.749l29.542 142.013s-29.619 142.405-29.653 142.602c-2.179 13.074 1.484 26.372 10.052 36.485 8.567 10.113 21.082 15.913 34.336 15.913h421.984c13.254 0 25.769-5.8 34.336-15.913s12.23-23.412 10.052-36.485c-.033-.198-.069-.394-.11-.59zm-435.27-429.013h361c8.271 0 15 6.729 15 15v77h-391v-77c0-8.271 6.729-15 15-15zm402.438 446.696c-2.897 3.421-6.962 5.305-11.445 5.305h-421.985c-4.483 0-8.548-1.884-11.445-5.305-2.844-3.356-4.043-7.579-3.39-11.915l27.622-132.781h47.799c8.284 0 15-6.716 15-15s-6.716-15-15-15h-47.799l-27.622-132.78c-.653-4.335.546-8.558 3.39-11.915 2.897-3.421 6.962-5.305 11.445-5.305h421.984c4.483 0 8.548 1.884 11.445 5.305 2.844 3.356 4.043 7.579 3.39 11.915l-27.622 132.781h-47.799c-8.284 0-15 6.716-15 15s6.716 15 15 15h47.799l27.622 132.781c.654 4.335-.546 8.557-3.389 11.914z"/><circle cx="106.109" cy="75.086" r="15"/><circle cx="407.109" cy="75.086" r="15"/><path d="m257.109 272.086c0-33.084-26.916-60-60-60-25.387 0-48.125 16.075-56.582 40.001-2.761 7.811 1.333 16.38 9.144 19.141 7.812 2.761 16.381-1.333 19.142-9.144 4.229-11.961 15.6-19.999 28.297-19.999 16.542 0 30 13.458 30 30s-13.458 30-30 30h-18.64c-8.284 0-15 6.716-15 15s6.716 15 15 15h18.64c16.542 0 30 13.458 30 30s-13.458 30-30 30c-12.697 0-24.068-8.037-28.297-19.999-2.761-7.811-11.328-11.905-19.142-9.144-7.811 2.761-11.904 11.331-9.144 19.141 8.457 23.926 31.195 40.001 56.582 40.001 33.084 0 60-26.916 60-60 0-17.901-7.881-33.997-20.354-45 12.473-11.001 20.354-27.097 20.354-44.998z"/><path d="m353.187 213.861c-4.878-2.61-10.795-2.323-15.398.744l-45 30c-6.894 4.596-8.756 13.909-4.16 20.801 4.597 6.894 13.911 8.755 20.801 4.161l21.68-14.453v151.972c0 8.284 6.716 15 15 15s15-6.716 15-15v-180c-.001-5.531-3.046-10.614-7.923-13.225z"/></g></svg>